<svg width="390" height="310" viewBox="0 0 390 310" fill="none" xmlns="http://www.w3.org/2000/svg">
<path d="M309 49C292 34 244.5 -0.500013 193.723 0.999996C32.5889 0.999996 0 309.926 0 309.926H47.3143C52.786 277.197 77.6501 217.328 77.6501 217.328C71.5105 247.422 67.4792 278.37 64.9364 309.926H116.837C135.316 215.436 204.936 120 216.436 114C284.936 143.5 310.777 211.724 314.624 284.421C322.268 286.816 389.86 309.965 389.86 309.965C382 211.5 388 78 309 49ZM111.5 167C105.59 153.533 101.878 152.554 93.9361 155.5C110.202 125.887 130.849 98.9618 151.936 86C137.53 107.557 119.589 134.999 111.5 167Z" fill="#0100D3"/>
<path d="M199 7C44.5296 7 6 298.5 6 298.5H44.3053C50.5508 263.026 78.0307 200.751 95.7677 170.795C84.7757 208.634 73.7838 298.5 73.7838 298.5H115.503C135.905 218.882 200.792 68.2755 296 50.5C251 10 211.907 7 199 7ZM115.503 181.043C107.355 160.461 96.105 156.109 83.027 161.336C105.994 111.168 136.355 87.2354 167.132 72.2577C145.348 99.0993 125.912 130.765 115.503 181.043Z" fill="#A0A0A0"/>
<path d="M382 299L321 280C310.339 162.469 268 126 230 104.5C230 104.5 268.153 67 299.136 67C366 72.5 379.208 287.176 382 299Z" fill="#A6A6A6"/>
<path d="M246.189 87.83C283.081 109.936 335.081 162.783 344.568 288.255L350.189 289.729C345.27 224.149 326.297 126.146 251.811 81.7289L246.189 87.83Z" fill="#0100D3"/>
<path d="M274 71.5C309.729 93.5952 349.542 154.725 366.556 298.344L372 299.817C372 299.817 354.306 112.744 282.167 67.8174L274 71.5Z" fill="#0100D3"/>
</svg>
